<?xml version="1.0" encoding="utf-8"?>
<!-- Generator: Adobe Illustrator 20.0.0, SVG Export Plug-In . SVG Version: 6.00 Build 0)  -->
<svg version="1.1" id="Layer_1" xmlns="http://www.w3.org/2000/svg" xmlns:xlink="http://www.w3.org/1999/xlink" x="0px" y="0px"
	 viewBox="0 0 28 28" style="enable-background:new 0 0 28 28;" xml:space="preserve">
<style type="text/css">
	.st0{fill:#DA8727;}
	.st1{fill:#FFC906;}
	.st2{opacity:0.3;fill:#FFFFFF;enable-background:new    ;}
</style>
<polygon class="st0" points="14.8,0.6 13.1,1.3 14.8,1.9 14.8,11.8 15.3,11.8 15.3,0.6 "/>
<polygon class="st0" points="16.9,2 15.1,2.7 16.9,3.3 16.9,10.4 17.4,10.4 17.4,2 "/>
<polygon class="st0" points="12.7,2 10.9,2.7 12.7,3.3 12.7,10.5 13.2,10.5 13.2,2 "/>
<polygon class="st0" points="10.6,3.4 8.9,4.1 10.6,4.7 10.6,9 11.1,9 11.1,3.4 "/>
<polygon class="st0" points="19,3.4 17.2,4.1 19,4.7 19,9 19.5,9 19.5,3.4 "/>
<polygon class="st0" points="8.5,4.8 6.8,5.5 8.5,6.1 8.5,7.6 9,7.6 9,4.8 "/>
<path class="st1" d="M19.5,21.7L19.5,21.7V10.3l1.8-0.6L19.5,9H19v2l-1.6-0.6h-0.5v2l-1.6-0.6h-0.5v9.5h-1.6v-9.6l1.8-0.6l-1.8-0.6
	h-0.5v10.9h-1.6v-11l1.8-0.6L11.1,9h-0.5v12.3H9V8.9l1.8-0.6L9,7.6H8.5v13.7v0.4V23H7.3v4.4h13.3V23h-1.1V21.7z M19,11.1v10.2h-1.6
	v-9.6L19,11.1z M15.3,13.1l1.6-0.6v8.8h-1.6C15.3,21.3,15.3,13.1,15.3,13.1z"/>
<path class="st2" d="M14,24.5c-4.9,0-6.7-1.5-6.7-1.5h13.3C20.6,23,18.9,24.5,14,24.5z"/>
<rect x="7.3" y="26.4" class="st0" width="13.3" height="1"/>
<rect x="8.5" y="22" class="st0" width="11" height="1"/>
</svg>
